# AST/ASF file generated using VICON BodyLanguage
# -----------------------------------------------
:version 1.10
:name VICON
:units
  mass 1.0
  length 0.45
  angle deg
:documentation
   .ast/.asf automatically generated from VICON data using
   VICON BodyBuilder and BodyLanguage model FoxedUp or BRILLIANT.MOD
:root
   order TX TY TZ RX RY RZ
   axis XYZ
   position 0 0 0  
   orientation 0 0 0 
:bonedata
  begin
     id 1 
     name lhipjoint
     direction 0.602128 -0.715006 0.355257 
     length 2.21237 
     axis 0 0 0  XYZ
  end
  begin
     id 2 
     name lfemur
     direction 0.34202 -0.939693 0  
     length 6.71649  
     axis 0 0 20  XYZ
    dof rx ry rz
    limits (-160.0 20.0)
           (-70.0 70.0)
           (-60.0 70.0)
  end
  begin
     id 3 
     name ltibia
     direction 0.34202 -0.939693 0   
     length 6.97123   
     axis 0 0 20   XYZ
    dof rx
    limits (-10.0 170.0)
  end
  begin
     id 4 
     name lfoot
     direction 0.0655697 -0.180151 0.981451   
     length 1.80924   
     axis -90 7.62852e-016 20   XYZ
    dof rx rz
    limits (-45.0 90.0)
           (-70.0 20.0)
  end
  begin
     id 5 
     name ltoes
     direction 1.53545e-011 -4.21827e-011 1   
     length 0.916331   
     axis -90 7.62852e-016 20   XYZ
    dof rx
    limits (-90.0 20.0)
  end
  begin
     id 6 
     name rhipjoint
     direction -0.625414 -0.698792 0.347201   
     length 2.2637  
     axis 0 0 0  XYZ 
  end
  begin
     id 7 
     name rfemur
     direction -0.34202 -0.939693 0   
     length 7.07595   
     axis 0 0 -20   XYZ
    dof rx ry rz
    limits (-160.0 20.0)
           (-70.0 70.0)
           (-70.0 60.0)
  end
  begin
     id 8 
     name rtibia
     direction -0.34202 -0.939693 0   
     length 7.22924   
     axis 0 0 -20   XYZ
    dof rx
    limits (-10.0 170.0)
 end
 begin
     id 9 
     name rfoot
     direction -0.0766747 -0.210662 0.974547   
     length 1.98482  
     axis -90 -7.62852e-016 -20   XYZ
    dof rx rz
    limits (-45.0 90.0)
           (-20.0 70.0)
  end
  begin
     id 10 
     name rtoes
     direction -1.53532e-011 -4.21867e-011 1   
     length 0.999842   
     axis -90 -7.62852e-016 -20   XYZ
    dof rx
    limits (-90.0 20.0)
  end
  begin
     id 11 
     name lowerback
     direction -0.0224668 0.997354 -0.0691422   
     length 2.09945   
     axis 0 0 0   XYZ
    dof rx ry rz
    limits (-20.0 45.0)
           (-30.0 30.0)
           (-30.0 30.0)
  end
  begin
     id 12 
     name upperback
     direction 0.0134698 0.998451 -0.0539888   
     length 2.09758   
     axis 0 0 0   XYZ
    dof rx ry rz
    limits (-20.0 45.0)
           (-30.0 30.0)
           (-30.0 30.0)
  end
  begin
     id 13 
     name thorax
     direction 0.0241905 0.99948 -0.0213333   
     length 2.10428   
     axis 0 0 0   XYZ
    dof rx ry rz
    limits (-20.0 45.0)
           (-30.0 30.0)
           (-30.0 30.0)
  end
  begin
     id 14 
     name lowerneck
     direction -0.00866847 0.995978 0.0891737   
     length 1.3959   
     axis 0 0 0   XYZ
    dof rx ry rz
    limits (-20.0 45.0)
           (-30.0 30.0)
           (-30.0 30.0)
  end
  begin
     id 15 
     name upperneck
     direction 0.0680679 0.992203 0.104404   
     length 1.39452   
     axis 0 0 0   XYZ
    dof rx ry rz
    limits (-20.0 45.0)
           (-30.0 30.0)
           (-30.0 30.0)
  end
  begin
     id 16
     name head
     direction 0.0242216 0.999358 0.0264054  
     length 1.40433  
     axis 0 0 0   XYZ
    dof rx ry rz
    limits (-20.0 45.0)
           (-30.0 30.0)
           (-30.0 30.0)
  end
  begin
     id 17 
     name lclavicle
     direction 0.929368 0.362991 -0.0671771  
     length 3.04887  
     axis 0 0 0   XYZ
    dof ry rz
    limits (-20.0 10.0)
           (0.0 20.0)
  end
  begin
     id 18 
     name lhumerus
     direction 1 -4.48967e-011 -7.13741e-028   
     length 4.77195   
     axis -180 -30 -90   XYZ
    dof rx ry rz
    limits (-60.0 90.0)
           (-90.0 90.0)
           (-90.0 90.0)
  end
  begin
     id 19
     name lradius
     direction 1 -4.48977e-011 3.60404e-027   
     length 2.98444   
     axis -180 -30 -90   XYZ
    dof rx
    limits (-10.0 170.0)
  end
  begin
     id 20
     name lwrist
     direction 1 -4.48997e-011 7.54877e-027   
     length 1.49222   
     axis -7.18178e-015 90 90   XYZ
    dof ry
    limits (-180.0 0.0)
 end
  begin
     id 21 
     name lhand
     direction 1 -4.489e-011 1.51105e-026   
     length 0.992285   
     axis -9.63605e-015 90 90   XYZ
    dof rx rz
    limits (-90.0 90.0)
           (-45.0 45.0)
  end
  begin
     id 22 
     name lfingers
     direction 1 -4.48998e-011 3.01948e-026   
     length 0.800006   
     axis -1.92718e-014 90 90   XYZ
    dof rx
    limits (0.0 90.0)
  end
  begin
     id 23
     name lthumb
     direction 0.707107 -6.34881e-011 0.707107   
     length 1.14865   
     axis -90 45 -3.53137e-014   XYZ
    dof rx rz
    limits (-45.0 45.0)
           (-45.0 45.0)
  end
  begin
     id 24 
     name rclavicle
     direction -0.945672 0.324529 0.0196374   
     length 3.4236  
     axis 0 0 0   XYZ 
    dof ry rz
    limits (-10.0 20.0)
           (-20.0 0.0)
  end
  begin
     id 25 
     name rhumerus
     direction -1 -4.4896e-011 1.02757e-029  
     length 4.62052   
     axis -180 30 90   XYZ
    dof rx ry rz
    limits (-90.0 60.0)
           (-90.0 90.0)
           (-90.0 90.0)
  end
  begin
     id 26 
     name rradius
     direction -1 -4.48982e-011 3.85962e-027   
     length 2.95332   
     axis -180 30 90   XYZ
    dof rx
    limits (-10.0 170.0)
  end
  begin
     id 27 
     name rwrist
     direction -1 -4.48961e-011 7.55118e-027   
     length 1.47666   
     axis -7.18178e-015 -90 -90   XYZ
    dof ry
    limits (-180.0 0.0)
  end
  begin
     id 28
     name rhand
     direction -1 -4.48984e-011 1.50994e-026   
     length 0.990956   
     axis -9.63605e-015 -90 -90   XYZ
    dof rx rz
    limits (-90.0 90.0)
           (-45.0 45.0)
  end
  begin
     id 29
     name rfingers
     direction -1 -4.4892e-011 3.02158e-026   
     length 0.798934   
     axis -1.92718e-014 -90 -90   XYZ
    dof rx
    limits (0.0 90.0)
  end
  begin
     id 30
     name rthumb
     direction -0.707107 -6.34916e-011 0.707107   
     length 1.14711   
     axis -90 -45 3.53137e-014   XYZ
    dof rx rz
    limits (-45.0 45.0)
           (-45.0 45.0)
  end
:hierarchy
  begin
    root lhipjoint rhipjoint lowerback
    lhipjoint lfemur
    lfemur ltibia
    ltibia lfoot
    lfoot ltoes
    rhipjoint rfemur
    rfemur rtibia
    rtibia rfoot
    rfoot rtoes
    lowerback upperback
    upperback thorax
    thorax lowerneck lclavicle rclavicle
    lowerneck upperneck
    upperneck head
    lclavicle lhumerus
    lhumerus lradius
    lradius lwrist
    lwrist lhand lthumb
    lhand lfingers
    rclavicle rhumerus
    rhumerus rradius
    rradius rwrist
    rwrist rhand rthumb
    rhand rfingers
  end

#!OML:ASF H:\ManfredObstacles\Project 1\Capture day 1\Session 1\Male.ASF
:FULLY-SPECIFIED
:DEGREES
177
root -2.81399 15.7006 35.4193 -173.009 -13.326 -181.516
lowerback -7.72442 -3.37023 -4.30773
upperback 3.24763 -4.06696 -0.178458
thorax 8.06247 -2.21613 1.6206
lowerneck 2.06999 -3.43686 -5.31817
upperneck -8.65404 -4.4449 10.3835
head -2.52564 -2.57449 4.12892
rclavicle 5.23798e-014 -2.18663e-015
rhumerus -44.8887 -31.4348 -65.6856
rradius 23.6663
rwrist 39.5148
rhand 0.833597 -6.53139
rfingers 7.12502
rthumb 26.3886 -34.715
lclavicle 5.23798e-014 -2.18663e-015
lhumerus -27.925 13.4602 81.6909
lradius 17.7759
lwrist -31.2428
lhand -8.2199 8.80877
lfingers 7.12502
lthumb 17.6972 38.0234
rfemur -40.7793 -1.78856 11.2949
rtibia 34.1889
rfoot -17.0497 1.08579
rtoes -2.80443
lfemur -10.557 -1.21029 -23.5619
ltibia 28.8331
lfoot -12.9087 -22.1783
ltoes 9.03659
178
root -2.79533 15.6836 35.2712 -172.817 -13.4621 -181.639
lowerback -7.98032 -3.44999 -4.40422
upperback 3.17194 -4.14718 -0.198834
thorax 8.14116 -2.2575 1.62776
lowerneck 1.98909 -3.43061 -5.27883
upperneck -8.51477 -4.43845 10.3653
head -2.47297 -2.56595 4.11164
rclavicle 1.54555e-014 2.78299e-015
rhumerus -45.0484 -31.4784 -65.6307
rradius 23.6658
rwrist 39.4753
rhand 0.705663 -6.63889
rfingers 7.12502
rthumb 26.2661 -34.8408
lclavicle 1.54555e-014 2.78299e-015
lhumerus -28.1146 14.6934 81.1559
lradius 17.0725
lwrist -32.6026
lhand -8.18914 8.71037
lfingers 7.12502
lthumb 17.7268 37.9223
rfemur -40.6996 -1.88272 11.272
rtibia 33.8111
rfoot -17.4994 0.930345
rtoes -4.3668
lfemur -10.0426 -1.31354 -23.4631
ltibia 28.6152
lfoot -13.3509 -22.3327
ltoes 8.78816
179
root -2.77293 15.6653 35.121 -172.62 -13.6448 -181.602
lowerback -8.20281 -3.50537 -4.28828
upperback 3.03019 -4.21794 -0.242152
thorax 8.1092 -2.27982 1.49886
lowerneck 2.01381 -3.46011 -5.11688
upperneck -8.39523 -4.47799 10.3275
head -2.44358 -2.58599 4.07192
rclavicle 2.5196e-014 1.37161e-014
rhumerus -45.3177 -31.5826 -65.5897
rradius 23.6452
rwrist 39.5759
rhand 0.647615 -6.72585
rfingers 7.12502
rthumb 26.2105 -34.936
lclavicle 2.5196e-014 1.37161e-014
lhumerus -28.4394 15.7987 80.4642
lradius 16.3814
lwrist -34.0907
lhand -8.19324 8.65346
lfingers 7.12502
lthumb 17.7229 37.8658
rfemur -40.5649 -1.77814 11.3451
rtibia 33.4967
rfoot -17.7911 0.929347
rtoes -3.85236
lfemur -9.57233 -1.42472 -23.162
ltibia 28.3993
lfoot -13.6167 -22.5979
ltoes 8.56839
180
root -2.74829 15.6477 34.9682 -172.395 -13.9 -181.502
lowerback -8.43032 -3.6174 -4.18401
upperback 2.87328 -4.36951 -0.183762
thorax 8.078 -2.34442 1.47046
lowerneck 1.94804 -3.46373 -5.14125
upperneck -8.25906 -4.48589 10.3395
head -2.39082 -2.58388 4.07503
rclavicle -6.62947e-014 1.19271e-015
rhumerus -45.4588 -31.5684 -65.491
rradius 23.6081
rwrist 39.7499
rhand 0.744526 -6.69545
rfingers 7.12502
rthumb 26.3033 -34.8918
lclavicle -6.62947e-014 1.19271e-015
lhumerus -28.8308 17.4037 79.674
lradius 15.6671
lwrist -36.0477
lhand -8.14814 8.47609
lfingers 7.12502
lthumb 17.7663 37.6845
rfemur -40.3676 -1.47513 11.4016
rtibia 33.2526
rfoot -18.1128 0.714522
rtoes -3.21569
lfemur -9.14697 -1.64603 -22.7813
ltibia 28.1817
lfoot -13.5561 -22.9741
ltoes 10.2166
181
root -2.72173 15.6268 34.8073 -172.15 -14.1223 -181.477
lowerback -8.70489 -3.74977 -4.20675
upperback 2.71253 -4.53415 -0.0975794
thorax 8.08379 -2.42299 1.53592
lowerneck 1.83382 -3.41208 -5.30915
upperneck -8.12769 -4.42109 10.3935
head -2.33261 -2.54193 4.11258
rclavicle 1.04263e-013 1.53064e-014
rhumerus -45.4942 -31.2164 -65.5593
rradius 23.6881
rwrist 39.5485
rhand 0.868772 -6.76752
rfingers 7.12502
rthumb 26.4222 -34.9461
lclavicle 1.04263e-013 1.53064e-014
lhumerus -29.281 19.4689 78.7008
lradius 14.9245
lwrist -38.2981
lhand -7.92216 8.2973
lfingers 7.12502
lthumb 17.9837 37.4859
rfemur -40.1355 -1.34347 11.544
rtibia 33.1318
rfoot -16.9761 0.752789
rtoes -1.64241
lfemur -8.67938 -1.87049 -22.4738
ltibia 27.8997
lfoot -13.3213 -23.4187
ltoes 12.6664
182
root -2.69614 15.6022 34.6357 -171.937 -14.1659 -181.52
lowerback -9.10171 -3.80246 -4.29652
upperback 2.59738 -4.57577 -0.0586748
thorax 8.20317 -2.44587 1.59866
lowerneck 1.87858 -3.36882 -5.30233
upperneck -8.15043 -4.36423 10.3132
head -2.3537 -2.51116 4.08781
rclavicle 2.08227e-014 9.93923e-016
rhumerus -45.5916 -30.9708 -65.5799
rradius 23.7938
rwrist 39.2914
rhand 0.970879 -6.90122
rfingers 7.12502
rthumb 26.52 -35.065
lclavicle 2.08227e-014 9.93923e-016
lhumerus -29.7675 21.7917 77.5323
lradius 14.1484
lwrist -40.9339
lhand -7.76802 8.165
lfingers 7.12502
lthumb 18.132 37.3399
rfemur -39.9322 -1.50441 11.8405
rtibia 33.1954
rfoot -16.8124 1.44127
rtoes 5.89719
lfemur -8.02194 -1.98856 -22.2709
ltibia 27.4647
lfoot -13.5003 -23.6158
ltoes 12.9689
